<?xml version="1.0" encoding="utf-8" ?>
<svg xmlns="http://www.w3.org/2000/svg" width="1024" height="1024" viewBox="370 310 285 275">
  <path fill="#143A65" d="M489.115 508.377C490.987 498.38 490.104 488.551 483.305 480.435C471.034 465.791 450.348 471.508 433.84 467.364C422.775 464.587 413.848 460.213 404.729 453.304C387.894 440.806 376.816 422.042 374.005 401.265C371.097 379.484 376.905 357.436 390.165 339.914C402.673 323.666 420.949 313.343 441.076 311.291C465.283 308.822 491.889 310.785 511.216 326.874C532.471 344.568 537.169 360.323 540.202 386.004C538.613 388.704 537.511 393.014 536.091 396.09C528.852 411.772 513.35 416.857 497.203 416.413C485.631 397.929 495.915 384.964 483.471 369.247C477.558 361.778 463.553 359.378 454.943 360.337C439.365 360.5 427.419 366.652 424.011 383.239C422.271 391.522 423.898 400.157 428.534 407.239C438.684 422.494 453.391 418.486 468.654 420.117C491.522 422.594 512.176 434.908 525.229 453.847C537.786 472.457 542.42 495.299 538.109 517.331C534.16 537.24 522.365 554.721 505.382 565.836C490.895 575.395 477.643 578.254 460.549 577.955C469.163 573.116 476.69 571.71 483.013 561.654C490.162 550.286 489.52 535.264 489.665 522.359C489.704 518.856 489.783 511.541 489.115 508.377Z"/>
  <path fill="#2897D2" d="M497.203 416.413C513.35 416.857 528.852 411.772 536.091 396.09C537.511 393.014 538.613 388.704 540.202 386.004C543.804 404.241 549.032 408.887 567.201 412.449C591.872 412.02 610.254 417.287 628.427 434.601C646.564 451.881 650.119 472.496 650.434 496.497C650.537 504.334 650.419 512.645 650.398 520.504C650.355 537.19 651.484 553.625 638.894 566.447C626.451 579.12 616.038 576.457 600.9 577.833L600.973 520.521C600.977 508.875 601.507 496.294 599.851 484.801C599.128 479.785 596.509 473.969 592.951 470.481C581.924 459.145 559.943 458.912 549.032 470.444C547.445 472.121 545.68 474.431 544.341 476.379C543.065 472.406 541.578 467.289 539.955 463.542C533.934 450.268 525.414 438.823 513.581 430.205C506.991 425.405 502.189 422.912 497.203 416.413Z"/>
  <path fill="#1769AE" d="M497.203 416.413C513.35 416.857 528.852 411.772 536.091 396.09C537.511 393.014 538.613 388.704 540.202 386.004C543.804 404.241 549.032 408.887 567.201 412.449L566.358 413.01C564.43 414.266 561.935 415.345 559.943 416.496C547.381 423.756 541.983 436.101 541.134 450.181C540.92 453.749 541.481 460.575 539.955 463.542C533.934 450.268 525.414 438.823 513.581 430.205C506.991 425.405 502.189 422.912 497.203 416.413Z"/>
  <path fill="#2897D2" d="M373.496 426.888C378.354 437.668 385.012 448.03 394.537 454.996C406.421 463.689 415.295 468.934 420.745 483.396C424.821 494.204 421.841 502.874 426.211 513.901C433.097 531.274 458.675 531.047 473.456 525.951C481.233 523.27 486.137 516.093 489.115 508.377C489.783 511.541 489.704 518.856 489.665 522.359C489.52 535.264 490.162 550.286 483.013 561.654C476.69 571.71 469.163 573.116 460.549 577.955C453.369 579.325 443.902 578.02 436.773 576.924C409.774 572.886 384.749 551.502 377.126 525.217C372.282 508.513 373.466 487.787 373.499 470.203L373.496 426.888Z"/>
</svg>